@startuml
top to bottom direction
state input as " "
state undone as " "
state notUndone as " "
state isUndoable <<choice>>
[*] --> OngoingGame
OngoingGame -> [*] : Is connect 4
OngoingGame --> input : Player requests undo
input --> isUndoable : Undo is performed\nBoard is shown
isUndoable --> undone : Is undoable
isUndoable --> notUndone : Not undoable
undone --> OngoingGame : Redo allowed\nUndo allowed\nPlay allowed
notUndone --> OngoingGame : Redo allowed\nPlay allowed
@enduml